<?xml version="1.0" encoding="UTF-8"?>
<svg id="Ebene_1" xmlns="http://www.w3.org/2000/svg" version="1.1" viewBox="0 0 140 72">
  <!-- Generator: Adobe Illustrator 29.0.0, SVG Export Plug-In . SVG Version: 2.1.0 Build 186)  -->
  <defs>
    <style>
      .st0 {
        fill: #b71312;
      }

      .st1 {
        fill: #003858;
      }
    </style>
  </defs>
  <path class="st1" d="M69.1-.2C48,.1,29.1,5.2,16.1,13.3,28.4,7.5,44.5,3.9,62.1,3.7c39.1-.4,70.9,16.4,71.2,37.4.1,9.8-6.8,18.9-18.2,25.8,15.3-7.2,25-17.7,24.9-29.4C139.7,16.3,107.9-.5,69.1-.2Z"/>
  <g>
    <path class="st1" d="M40.3,48.1c0,2.1-.3,4-.9,5.7-.6,1.6-1.5,2.9-2.6,4-1.1,1-2.5,1.9-4.2,2.4-1.6.5-3.4.8-5.4.8s-4-.3-6-.9c-2-.6-3.9-1.5-5.4-2.6l3.6-5.3c1.1,1,2.3,1.6,3.5,2.1s2.5.8,3.8.8c2.1,0,3.8-.6,4.8-1.8,1-1.1,1.5-2.6,1.5-4.5v-1.4h0c-.6.9-1.6,1.6-2.8,2.1-1.1.5-2.5.8-4,.8s-3.3-.3-4.5-.9c-1.3-.6-2.4-1.4-3.4-2.5-.9-1-1.6-2.3-2.1-3.6-.5-1.4-.8-2.9-.8-4.4s.3-3,.8-4.4,1.1-2.6,2.1-3.8c.9-1.1,2-1.9,3.4-2.5,1.3-.6,2.8-1,4.5-1s2.8.3,4,.9c1.3.6,2.3,1.5,3.1,2.6h0v-2.9h6.9c0,0,0,20.3,0,20.3ZM33.2,39c0-.8,0-1.5-.4-2.1-.3-.6-.6-1.3-1.1-1.8-.5-.5-1-.9-1.8-1.3-.5-.4-1.3-.5-2.1-.5s-1.6,0-2.3.5c-.6.3-1.1.8-1.6,1.3s-.8,1.1-1,1.8c-.3.6-.4,1.4-.4,2.1s.1,1.5.4,2.1.6,1.3,1,1.8c.5.5,1,.9,1.6,1.3.6.3,1.4.5,2.3.5s1.6,0,2.3-.5c.6-.3,1.3-.8,1.8-1.3s.9-1.1,1.1-1.8c.1-.6.2-1.4.2-2.1Z"/>
    <path class="st1" d="M68.2,39.3v1.8h-16.2c0,.6.3,1.1.5,1.8.3.5.8,1,1.3,1.3.5.4,1,.6,1.6.9.6.3,1.3.3,1.9.3,1.1,0,2.1-.3,2.9-.6.8-.4,1.5-1,2-1.6l5.2,3.3c-1,1.5-2.4,2.6-4.2,3.5s-3.6,1.3-5.9,1.3-3.3-.3-4.8-.8-2.8-1.3-3.9-2.3-2-2.3-2.6-3.6c-.6-1.5-1-3.1-1-5s.3-3.5.9-4.9c.6-1.5,1.5-2.8,2.5-3.8,1.1-1,2.4-1.9,3.8-2.4,1.5-.5,3-.9,4.8-.9s3.1.3,4.5.9c1.4.5,2.5,1.4,3.5,2.4s1.8,2.3,2.3,3.8c.6,1,.9,2.7.9,4.6ZM61.4,36.6c0-1.1-.4-2.1-1.1-3-.8-.9-1.9-1.3-3.3-1.3s-1.4,0-2,.4c-.6.3-1.1.5-1.5.9-.5.4-.8.9-1.1,1.4s-.4,1-.5,1.6c-.1,0,9.5,0,9.5,0Z"/>
    <path class="st1" d="M87.8,21.9c-.3-.1-.6-.1-.9-.3-.3-.1-.8-.1-1.1-.1-.6,0-1.3.1-1.6.4-.4.3-.8.5-1,1-.3.4-.4.9-.5,1.4s0,1,0,1.5v2.2h4.9v5.4h-4.9v16.9h-7.3v-16.9h-4v-5.4h4v-2.3c0-1.4,0-2.6.5-3.9.3-1.3.8-2.3,1.5-3.3.8-.9,1.8-1.6,2.9-2.3,1.3-.5,2.8-.9,4.7-.9s1.3,0,1.9.1,1.1.1,1.6.4l-.6,6.1Z"/>
    <path class="st1" d="M91.2,31c1.3-1.3,2.9-2.1,4.5-2.8,1.8-.6,3.5-.9,5.4-.9s3.5.3,4.8.8,2.4,1.1,3.1,2.1c.8,1,1.4,2.1,1.8,3.6s.5,3.3.5,5.3v11.2h-6.7v-2.3h0c-.6.9-1.4,1.6-2.5,2.1s-2.4.8-3.8.8-1.8,0-2.8-.4c-1-.3-1.9-.6-2.6-1.1-.8-.5-1.4-1.3-1.9-2.1-.5-.9-.8-2-.8-3.3s.4-2.9,1.3-3.9,2-1.8,3.4-2.3,2.9-.9,4.7-1.1c1.8,0,3.4-.3,4.9-.3v-.4c0-1.1-.4-1.9-1.1-2.4-.8-.5-1.8-.8-2.9-.8s-2,.3-3,.6c-1,.5-1.8,1-2.5,1.6l-3.7-4ZM104.7,40.5h-.9c-.8,0-1.6,0-2.4,0s-1.5.3-2.1.4c-.6.3-1.1.5-1.6.9-.4.4-.6.9-.6,1.6s0,.8.3,1.1c.3.3.4.5.8.8.3,0,.6.3,1,.4.4,0,.8,0,1.1,0,1.5,0,2.6-.4,3.4-1.3.8-.9,1.1-1.9,1.1-3.4v-.7h-.1Z"/>
  </g>
  <path class="st0" d="M6.5,12.7c3.6,0,6.5,2.9,6.5,6.5s-3,6.7-6.5,6.7S0,22.8,0,19.2c-.1-3.5,2.9-6.5,6.5-6.5Z"/>
  <g>
    <path class="st1" d="M3.4,71.9l1.4-7.7h1.4l-1.4,7.7h-1.4Z"/>
    <path class="st1" d="M7.3,67.3c0-.3,0-.4,0-.6h1.1v.8h0c.1-.3.4-.5.6-.6.3-.3.6-.3,1-.3s.8,0,1,.3c.3.3.4.4.5.8.3-.4.5-.6.8-.8.3,0,.6-.3,1-.3s.5,0,.8,0,.4.3.5.4.3.4.4.5.1.4.1.6v.5l-.6,3.3h-1.3l.5-2.9v-1c0,0-.1-.3-.1-.3q-.1,0-.3-.3c-.1,0-.3,0-.4,0-.3,0-.4,0-.5,0s-.3.3-.4.4c-.1,0-.3.3-.3.5-.1,0-.1.4-.1.5l-.5,2.9h-1.3l.5-3.1v-.3c0-.3-.1-.5-.3-.6s-.4-.3-.6-.3-.4,0-.5,0,0,.4-.2.5c-.1,0-.3.3-.3.5-.1,0-.1.4-.1.5l-.5,2.9h-1.2l.8-4c-.2-.4-.2-.5-.2-.7Z"/>
    <path class="st1" d="M17,67.3c0-.3,0-.4.1-.6h1.1v.8h0c.1-.3.4-.5.6-.6.3-.3.6-.3,1-.3s.8,0,1,.3c.3.3.4.4.5.8.3-.4.5-.6.8-.8.3,0,.6-.3,1-.3s.5,0,.8,0,.4.3.5.4.3.4.4.5c.1.3.1.4.1.6v.5l-.5,3.3h-1.3l.5-2.9v-1c0,0-.1-.3-.1-.3q-.1,0-.3-.3c-.1,0-.3,0-.4,0-.3,0-.4,0-.5,0s-.2.4-.3.5-.3.3-.3.5c-.1,0-.1.4-.1.5l-.5,2.9h-1.3l.5-3.1v-.3c0-.3-.1-.5-.3-.6s-.4-.3-.6-.3-.4,0-.5,0-.3.3-.4.4-.3.3-.3.5c-.1,0-.1.4-.1.5l-.4,2.9h-1.3l.8-4c-.2-.4-.2-.5-.2-.7Z"/>
    <path class="st1" d="M27.2,69.6s0,.2,0,0c0,.3,0,.5.1.6s.1.3.3.4.3,0,.4.3c.1,0,.4,0,.5,0,.4,0,.6,0,.9,0s.5-.3.6-.5l.8.6c-.6.8-1.4,1-2.4,1s-.6,0-1,0c-.3,0-.5-.3-.8-.5-.3-.3-.4-.4-.5-.8-.1-.3-.1-.6-.1-1s.1-.9.3-1.3c.1-.4.4-.8.6-1s.6-.5,1-.6.8-.3,1.3-.3.6,0,.9,0,.5.3.6.4c.3,0,.4.4.5.6.1.3.1.5.1.9v.5c0,.2,0,.4-.1.6,0,.1-4,.1-4,.1ZM30.1,68.8h0v-.2c0-.3-.1-.5-.3-.8-.3-.3-.5-.3-.9-.3s-.4,0-.6,0c-.1,0-.4,0-.5.3s-.3.3-.4.4-.1.3-.1.4h2.8Z"/>
    <path class="st1" d="M34,67.5c0-.3.4-.5.6-.8.3,0,.5-.3.9-.3h.2v1.3h-.4c-.3,0-.5,0-.8,0,0,0-.4.3-.5.4s-.3.3-.3.5,0,.3,0,.4l-.5,2.8h-1.1l.8-4c0,0,0-.4,0-.5,0-.3,0-.4,0-.6h1.1v.7c0-.1,0,0,0,0h0Z"/>
    <path class="st1" d="M36.9,71c0,.3,0,.4-.3.6,0,0-.4.3-.6.3s-.4,0-.5-.3c0,0-.3-.4-.3-.6s0-.4.3-.6c0,0,.4-.3.6-.3s.4,0,.5.3c0,.3.3.4.3.6Z"/>
    <path class="st1" d="M43,65.4l-.4,2.1h3.3l-.3,1.1h-3.3l-.6,3.3h-1.4l1.4-7.7h4.8l-.3,1.1c0,0-3.2,0-3.2,0Z"/>
    <path class="st1" d="M49.7,71c0,.3-.4.5-.6.6-.3,0-.6.3-1,.3s-.5,0-.8,0-.4-.3-.5-.4-.3-.4-.4-.5c0-.3,0-.4,0-.6v-.5l.6-3.3h1.3l-.5,2.9v.6c0,.3,0,.4,0,.6,0,0,.4.3.6.3s.4,0,.5,0,.3,0,.4-.4c0,0,.3-.3.3-.5,0,0,0-.4,0-.5l.5-2.9h1.3l-.8,4c0,0,0,.4,0,.5,0,.3,0,.4,0,.6h-.9v-.4c.1,0,.1,0,.1-.2h0ZM49.2,64.9c0,.3,0,.4-.3.5,0,0-.4.3-.5.3-.3,0-.4,0-.5-.3,0,0-.3-.3-.3-.5,0-.3,0-.4.3-.5,0,0,.4-.3.5-.3.3,0,.4,0,.5.3.3,0,.3.2.3.5ZM51.3,64.9c0,.3,0,.4-.3.5,0,0-.4.3-.5.3-.3,0-.4,0-.5-.3,0,0-.3-.3-.3-.5,0-.3,0-.4.3-.5,0,0,.4-.3.5-.3s.4,0,.5.3c.3,0,.3.2.3.5Z"/>
    <path class="st1" d="M54.5,67.5c0-.3.4-.5.6-.8.3,0,.5-.3.9-.3h.2v1.1h-.5c-.3,0-.5,0-.8,0,0,0-.4.3-.5.4s-.3.3-.3.5,0,.3,0,.4l-.5,2.8h-1.3l.8-4c0,0,0-.4,0-.5,0-.3,0-.4,0-.6h1.1v.7q0,.2.2.2h0Z"/>
    <path class="st1" d="M56.6,70.4c0,.3.3.4.5.5s.5,0,.8,0,.5,0,.8,0c0,0,.3-.3.3-.5s0-.4-.3-.4c0,0-.4,0-.6-.3-.3,0-.5,0-.6-.3,0,0-.4,0-.5-.3,0,0-.3-.3-.3-.4s0-.4,0-.5c0-.3,0-.5,0-.8s.3-.4.5-.5c.3,0,.5-.3.8-.4s.6,0,.9,0,.8,0,1.1.3c.4,0,.6.4.8.6l-1,.5c0,0-.3-.3-.4-.4,0,0-.4,0-.6,0h-.4c0,0-.3,0-.3,0,0,0,0,0-.3.3,0,0,0,0,0,.3s0,.3.3.4.4,0,.6.3c.5,0,.9.4,1.1.5.3.3.4.6.4,1s0,.5,0,.8-.3.4-.5.5c-.3,0-.5.3-.8.4s-.6,0-1,0-1,0-1.4-.3c-.4-.3-.6-.5-.8-.8l1.1-.5Z"/>
    <path class="st1" d="M63.6,71.9l1.4-7.7h1.4l-1.1,6.5h3.3l-.3,1.1h-4.7Z"/>
    <path class="st1" d="M70.3,69.6s0,.2,0,0c0,.3,0,.5,0,.6s0,.3.3.4c0,0,.3,0,.4.3,0,0,.4,0,.5,0,.4,0,.6,0,.9,0s.5-.3.6-.5l.8.6c-.6.8-1.4,1-2.4,1s-.6,0-1,0c-.3,0-.5-.3-.8-.5-.3-.3-.4-.4-.5-.8,0-.3,0-.6,0-1s0-.9.3-1.3c0-.4.4-.8.6-1s.6-.5,1-.6.8-.3,1.3-.3.6,0,.9,0,.5.3.6.4c.3,0,.4.4.5.6s0,.5,0,.9v.5c0,.2,0,.4,0,.6-.1.1-4,.1-4,.1ZM73.1,68.8h0v-.2c0-.3,0-.5-.3-.8-.3-.3-.5-.3-.9-.3s-.4,0-.6,0c0,0-.4,0-.5.3s-.3.3-.4.4,0,.3,0,.4h2.8Z"/>
    <path class="st1" d="M77.1,67.5l.8-.8c.4,0,.6-.3,1.1-.3s.6,0,.9,0,.5.3.8.5c.3.3.4.4.5.8,0,.3,0,.6,0,.9,0,.5,0,.9-.3,1.3,0,.4-.4.8-.6,1-.3.3-.5.5-.9.8-.4,0-.8.3-1.1.3s-.8,0-1.1-.3c-.4,0-.6-.4-.8-.8h0v.9h-1.4l1.4-8.2h1.3l-.7,3.8h0ZM79.9,68.9c0-.4,0-.8-.4-1-.3-.3-.5-.4-1-.4s-.5,0-.8,0-.4.3-.6.5-.3.4-.4.6,0,.5,0,.8,0,.8.4,1,.5.4,1,.4.5,0,.8,0,.4-.3.5-.4.3-.4.4-.6c.2-.4.2-.7.2-.9Z"/>
    <path class="st1" d="M83.3,69.6s0,.2,0,0c0,.3,0,.5,0,.6s0,.3.3.4.3,0,.4.3c0,0,.4,0,.5,0,.4,0,.6,0,.9,0s.5-.3.6-.5l.8.6c-.6.8-1.4,1-2.4,1s-.6,0-1,0c-.3,0-.5-.3-.8-.5-.3-.3-.4-.4-.5-.8-.2-.2-.2-.6-.2-1s0-.9.3-1.3c0-.4.4-.8.6-1,.3-.3.6-.5,1-.6s.8-.3,1.3-.3.6,0,.9,0,.5.3.6.4c.3,0,.4.4.5.6s0,.5,0,.9v.5c0,.2,0,.4,0,.6,0,.1-3.9.1-3.9.1ZM86.2,68.8h0v-.2c0-.3,0-.5-.3-.8-.3-.3-.5-.3-.9-.3s-.4,0-.6,0c0,0-.4,0-.5.3l-.4.4c0,0,0,.3,0,.4h2.8Z"/>
    <path class="st1" d="M90.1,67.5c0-.3.4-.5.6-.6.3,0,.6-.3,1-.3s.5,0,.8,0,.4.3.5.4.3.4.3.5,0,.4,0,.6v.5l-.7,3.3h-1.3l.5-2.9v-.6c0-.3,0-.4,0-.6,0,0-.4-.3-.6-.3-.3,0-.4,0-.5,0s-.3,0-.4.4c0,0-.3.3-.3.5,0,0,0,.4,0,.5l-.5,2.9h-1.3l.8-4c0,0,0-.4,0-.5,0-.3,0-.4,0-.6h1.1v.4c0-.2,0,.1,0,.2h0Z"/>
    <path class="st1" d="M102.6,63.6h1.3l-1.5,8.3h-1.3v-.9h0l-.8.8c-.4,0-.6.3-1.1.3s-.6,0-.9,0-.5-.3-.8-.5c-.3-.3-.4-.4-.5-.8,0-.3,0-.6,0-.9,0-.5,0-.9.3-1.3,0-.4.4-.8.6-1,.3-.3.5-.5.9-.8.4,0,.8-.3,1.1-.3.5,0,.9,0,1.1.3.3,0,.5.4.6.8h0l1-3.9ZM98.5,69.6c0,.4,0,.8.4,1,.3.3.5.4,1,.4s.5,0,.8,0,.4-.3.6-.5.3-.4.4-.6c0-.3,0-.5,0-.8s0-.8-.4-1c-.3-.3-.5-.4-1-.4s-.5,0-.8,0-.4.3-.5.4-.3.4-.4.6c0,.3-.2.6-.2.9Z"/>
    <path class="st1" d="M107.7,68.5v-.3h0c0-.4,0-.5-.3-.6,0,0-.4,0-.8,0s-.5,0-.8,0-.5.3-.8.4l-.5-.9c.3-.3.6-.4,1-.5s.8,0,1.1,0,.5,0,.8,0c.3,0,.5,0,.6.3.3,0,.4.3.5.5s0,.5,0,.8v.6l-.4,2.1c0,.3,0,.4,0,.6v.5h-1.1c0-.3,0-.4,0-.6h0c-.4.5-1,.8-1.6.8s-.4,0-.5,0c-.3,0-.4,0-.5-.3l-.4-.4c0,0,0-.4,0-.6,0-.4,0-.8.4-1s.5-.5.9-.6.8-.3,1.3-.3c.2-.3.7-.4,1.1-.4ZM107.4,69.5h-.8c-.3,0-.5,0-.8,0s-.4,0-.5.3c0,0-.3.3-.3.5s0,.3,0,.3c0,0,0,0,.3.3,0,0,0,0,.3,0h.4c.3,0,.4,0,.5,0s.4,0,.5-.3.3-.3.4-.4,0-.3,0-.5v-.4c0,0-.3,0-.3,0h0c0,0,.1,0,.1,0Z"/>
    <path class="st1" d="M111.3,71c0,.3,0,.4-.3.6,0,0-.4.3-.6.3-.3,0-.4,0-.5-.3,0,0-.3-.4-.3-.6s0-.4.3-.6c0,0,.4-.3.6-.3.3,0,.4,0,.5.3.3.3.3.4.3.6Z"/>
  </g>
  <path class="st1" d="M6.5,29.5c-1.3,0-2.5-.3-3.6-.8v21.4h7.3v-21.5c-1.1.7-2.4.9-3.7.9Z"/>
</svg>